<?xml version="1.0" encoding="utf-8"?>
<!-- Generator: Adobe Illustrator 26.0.2, SVG Export Plug-In . SVG Version: 6.00 Build 0)  -->
<svg version="1.1" id="Layer_1" xmlns="http://www.w3.org/2000/svg" xmlns:xlink="http://www.w3.org/1999/xlink" x="0px" y="0px"
	 viewBox="0 0 960 640" style="enable-background:new 0 0 960 640;" xml:space="preserve">
<style type="text/css">
	.st0{fill:#BD002D;}
	.st1{fill:#FFFFFF;}
</style>
<g>
	<path class="st0" d="M250.7,553.8h459c19.4,0,34.8-15.8,34.8-35.2c0-5.9-1.6-12.3-4.4-17.4L510.5,103.6
		c-6.3-11.1-17.8-17.4-30.5-17.4c-12.3,0-24.2,6.3-30.5,17.4L220.2,501.2c-3.2,5.1-4.8,11.5-4.8,17.4
		C215.5,538,231.3,553.8,250.7,553.8"/>
	<polygon class="st1" points="689.5,507.1 270.9,507.1 480,144.4 	"/>
	<path d="M517.6,339.2l-64.5,60.6v-96.6l-23.4-23.4l-24.2,23.7v108.5c0,31.7,37.2,55.8,67.3,28.5l64.5-60.2v112.5h47.1V367.7
		C584.5,337.2,545.7,312.3,517.6,339.2"/>
</g>
</svg>
