<?xml version="1.0" encoding="utf-8"?> <svg version="1.1" id="Layer_1" xmlns="http://www.w3.org/2000/svg" xmlns:xlink="http://www.w3.org/1999/xlink" x="0px" y="0px" viewBox="0 0 960 640" style="enable-background:new 0 0 960 640;" xml:space="preserve"> <style type="text/css"> .st0{fill:#BD002D;} .st1{fill:#FFFFFF;} </style> <g> <path class="st0" d="M619.6,85.9h-279L480,327.4L619.6,85.9z M306.9,89.9c-2.1-4-3.2-7.1-3.2-11.6c0-12.9,10.6-23.5,23.5-23.5 h305.9c12.9,0,23.5,10.6,23.5,23.5c0,4-1.3,8.2-3.2,11.6l-153.1,265c-4.2,7.1-11.9,11.6-20.3,11.6c-8.2,0-16.1-4.5-20.1-11.6 L306.9,89.9z"/> <path d="M305.5,382.3c-13.5,0-24.5,10.8-24.5,24.3V561c0,13.5,11.1,24.3,24.5,24.3h349.2c13.5,0,24.3-10.8,24.3-24.3V406.6 c0-13.5-10.8-24.3-24.3-24.3H305.5z"/> <path class="st1" d="M305.5,394.4c-6.9,0-12.4,5.5-12.4,12.1V561c0,6.6,5.5,12.1,12.4,12.1h349.2c6.9,0,12.1-5.5,12.1-12.1V406.6 c0-6.6-5.3-12.1-12.1-12.1H305.5z"/> <path d="M552,539.6l6.3-5.5c2.1,2.6,7.1,5,9.5,5c2.1,0,4.2-1.8,4.2-3.4c0-1.6-1.3-2.4-2.4-2.6c-1.3-0.3-5.5-1.3-6.3-1.6 c-1.1-0.3-8.7-1.6-8.7-9.5c0-8.2,8.4-10,13.7-10c5,0,9.5,1.6,13.2,4.8l-5.5,5.8c-2.9-2.6-5.3-3.7-7.6-3.7c-2.6,0-4.5,1.1-4.5,2.9 s1.3,2.1,2.1,2.4c0.8,0.3,6.3,1.3,7.4,1.6c1.3,0.3,7.9,2.4,7.9,9.8c0,7.7-7.1,10.6-13.7,10.6C560.8,545.9,554.2,542.5,552,539.6"/> <path d="M497.7,550.1l12.9-38h-9l-6.3,20.1l-6.6-20.1h-9l10.8,31.1c0.5,2.1-0.3,4.8-4.8,4.2l-2.9-0.5l-1.1,7.4l5,0.8 C493.2,555.9,496.1,553.6,497.7,550.1"/> <path d="M393.4,514l0.8-6.6h20.1v-8.2h-27.7l-4,23.5l9.2,1.3c1.6-2.1,4-3.7,7.1-3.7c3.2,0,7.9,2.6,7.9,8.7c0,5.3-3.7,8.2-7.9,8.2 c-3.7,0-7.1-2.9-7.9-6.3l-9,2.4c2.4,11.6,15.8,12.4,17.4,12.4c2.6,0,16.9-1.6,16.9-16.6c0-16.1-12.7-16.4-15.6-16.4 C398.2,512.7,395.8,513.2,393.4,514"/> <polygon points="453.3,418.2 438.6,418.2 438.6,463.6 469.4,463.6 469.4,455.1 447.5,455.1 447.5,445.1 466,445.1 466,436.4 447.5,436.4 447.5,426.6 468.1,426.6 468.1,418.2 460.5,418.2 	"/> <path d="M348.6,432.7l8.4-3.7c-2.9-5.5-9.5-11.6-18.7-11.6c-9.5,0-21.4,6.9-21.4,23s11.6,23.5,21.4,23.5c6.3,0,10.6-2.6,11.3-3.2 v2.9h8.2v-26.1h-19.5v7.7h11.3c0,4.5-4,10.6-11.3,10.6s-12.1-6.3-12.1-15s5.3-14.5,11.6-14.5C344.1,426.1,347.2,429.8,348.6,432.7" /> <rect x="371.8" y="418.2" width="9" height="45.4"/> <polygon points="410.3,463.6 415.3,463.6 428,417.9 418.5,417.9 409.3,451.2 400,417.9 390.3,417.9 403.2,463.6 407.4,463.6 	"/> <polygon points="524.9,418.2 521.2,418.2 515.1,448.5 508,418.2 498.5,418.2 508.8,463.6 519.9,463.6 526.4,430.3 533,463.6 544.1,463.6 554.4,418.2 544.7,418.2 538.1,448.5 531.5,418.2 528.6,418.2 	"/> <polygon points="612.2,418.2 606.2,418.2 621.2,445.1 621.2,463.6 630.2,463.6 630.2,445.1 645.2,418.2 634.9,418.2 625.7,435.9 616.4,418.2 	"/> <path d="M587.2,447.2h-4h-4h-3.7l5.5-17.7L587.2,447.2z M601.7,463.6l-14.8-45.4h-11.3l-14.8,45.4h9.5l2.6-8.2h5.3h5.8h5.5l2.9,8.2 H601.7z"/> <path d="M538.9,532.2c0,2.6-2.4,6.6-7.4,6.6c-4.8,0-7.7-4-7.7-10c0-6.3,3.4-9.2,7.7-9.2c4.2,0,7.4,2.4,7.4,6.3V532.2z M547.3,544.9 v-45.4h-8.4v15.3c-3.4-2.4-5.3-3.4-9.2-3.4c-4,0-14.5,3.7-14.5,17.1c0,13.5,10.3,17.7,15.3,17.7c5,0,8.4-2.9,8.4-2.9v1.6H547.3z"/> <path d="M452.3,522.2c0.3,11.9-4.2,15.6-9.8,15.6c-5.3,0-9.8-3.7-9.8-15.6c0.3-11.9,5-14.5,9.8-14.5 C447.5,507.6,452.3,510.3,452.3,522.2 M461.8,522.4c0-19.5-12.7-23.5-19.3-23.2c-6.3-0.3-19,3.7-19,23.2c0,19.8,11.9,23.8,19,23.8 C449.9,546.2,461.8,542.2,461.8,522.4"/> </g> </svg>
