<?xml version="1.0" encoding="utf-8"?> <svg version="1.1" id="Layer_1" xmlns="http://www.w3.org/2000/svg" xmlns:xlink="http://www.w3.org/1999/xlink" x="0px" y="0px" viewBox="0 0 960 640" style="enable-background:new 0 0 960 640;" xml:space="preserve"> <style type="text/css"> .st0{fill:#BD002D;} .st1{fill:#FFFFFF;} </style> <g> <path class="st0" d="M603.4,113.2H356.8L480,326.7L603.4,113.2z M327,116.7c-2.1-3.5-2.8-6.3-2.8-10.3c0-11.4,9.3-20.8,20.8-20.8 h270.4c11.4,0,20.5,9.3,20.5,20.8c0,3.5-0.9,7.2-2.6,10.3L498,350.9c-3.7,6.3-10.5,10.3-18,10.3c-7.2,0-14.2-4-18-10.3L327,116.7z" /> <path d="M480,374.9H367.4c-11.9,0-21.6,9.7-21.6,21.6v136.2c0,11.9,9.7,21.6,21.6,21.6h225.1c11.9,0,21.6-9.7,21.6-21.6V396.5 c0-11.9-9.7-21.6-21.6-21.6H480z"/> <path class="st1" d="M480,385.7H367.3c-5.9,0-10.7,4.8-10.7,10.7v136.5c0,5.9,4.8,10.7,10.7,10.7h225.3c5.9,0,10.7-4.8,10.7-10.7 V396.4c0-5.9-4.8-10.7-10.7-10.7H480z"/> <path d="M403.5,440l5.8-5.6c7.5,5.4,13.5,5.8,15.2,5.8c2.1,0,4.2-2.1,4.2-4.7c0-2.6-1.9-4-3.3-4.2c-1.2-0.5-6.8-1.6-9.1-2.1 c-2.3-0.5-9.6-2.6-9.6-11.4s6.3-12.1,13.5-12.1s12.4,2.1,17.3,6.3l-5.6,5.4c-3-2.1-6.8-4-12.1-4c-3.5,0-4,3-4,4 c0,1.2,0.7,3.5,2.8,4c2.1,0.5,7.7,1.9,8.6,1.9c2.3,0.5,10.3,3.5,10.3,11.9c0,7.5-5.1,12.6-14.2,12.6 C414,447.7,406.5,443.3,403.5,440"/> <polygon points="467.4,414.1 463,414.1 463,446.8 455,446.8 455,414.1 443.6,414.1 443.6,406.7 474.2,406.7 474.2,414.1 469.5,414.1 	"/> <path d="M557.9,514l5.6-4.9c1.9,2.3,6.3,4.4,8.4,4.4c1.9,0,3.7-1.6,3.7-3c0-1.4-1.2-2.1-2.1-2.3c-1.2-0.2-4.9-1.2-5.6-1.4 c-0.9-0.2-7.7-1.4-7.7-8.4s7.5-8.9,12.1-8.9c4.4,0,8.4,1.4,11.7,4.2l-4.9,5.1c-2.6-2.3-4.7-3.3-6.8-3.3c-2.3,0-4,0.9-4,2.6 c0,1.6,1.2,1.9,1.9,2.1c0.7,0.2,5.6,1.2,6.5,1.4c1.2,0.2,7,2.1,7,8.6c0,6.8-6.3,9.3-12.1,9.3C565.6,519.6,559.8,516.5,557.9,514"/> <path d="M509.9,523.3l11.4-33.6h-7.9l-5.6,17.7l-5.8-17.7H494l9.6,27.5c0.5,1.9-0.2,4.2-4.2,3.7l-2.6-0.5l-0.9,6.5l4.4,0.7 C505.9,528.4,508.5,526.3,509.9,523.3"/> <path d="M384.8,478.3h7.2v40.1h-7.9v-27.8h-6.5v-6.5h0.9C380.4,484.1,383.9,484.1,384.8,478.3"/> <path d="M549.8,419.5c0,2.8-2.6,5.8-6.1,5.8H536v-11.4h7.9C547.4,413.9,549.8,416.7,549.8,419.5 M557.9,419.5 c0-6.8-4.7-13.1-11.2-13.1h-18.7v40.4h7.9v-14.5h9.1C553.7,432.3,557.9,426.3,557.9,419.5"/> <path d="M509.4,426.7c0,8.9-5.4,13.1-10.5,13.1c-5.4,0-10.7-4.2-10.7-13.1c0-8.6,5.1-12.8,10.7-12.8 C504.3,413.9,509.4,418.1,509.4,426.7 M517.8,426.7c0-14.7-11.2-20.8-18.9-20.8c-7.7,0-19.1,6.1-19.1,20.8 c0,14.5,11,20.5,19.1,20.5C506.8,447.3,517.8,441.2,517.8,426.7"/> <path d="M546.3,507.4c0,2.3-2.1,5.8-6.5,5.8c-4.2,0-6.8-3.5-6.8-9.1c0-5.4,3-7.9,6.8-7.9c3.7,0,6.5,2.1,6.5,5.6V507.4z M553.7,518.6v-40.1h-7.5V492c-3-2.1-4.7-3-8.2-3c-3.5,0-12.8,3.3-12.8,15.2c0,11.9,9.1,15.6,13.5,15.6c4.4,0,7.5-2.6,7.5-2.6v1.4 H553.7z"/> <path d="M469.7,498.6c0.2,10.5-3.7,13.8-8.6,13.8c-4.7,0-8.6-3.3-8.6-13.8c0.2-10.3,4.4-12.8,8.6-12.8 C465.5,485.7,469.7,488.3,469.7,498.6 M478.1,498.8c0-17.3-11.2-20.8-17-20.5c-5.6-0.2-16.8,3.3-16.8,20.5c0,17.5,10.5,21,16.8,21 C467.6,519.8,478.1,516.3,478.1,498.8"/> <path d="M428.2,498.6c0.2,10.5-3.7,13.8-8.6,13.8c-4.7,0-8.9-3.3-8.6-13.8c0.2-10.3,4.4-12.8,8.6-12.8S428.2,488.3,428.2,498.6 M436.6,498.8c0-17.3-11.2-20.8-17-20.5c-5.6-0.2-16.8,3.3-16.8,20.5c0,17.5,10.5,21,16.8,21C425.9,519.8,436.6,516.3,436.6,498.8" /> </g> </svg>
