<?xml version="1.0" encoding="utf-8"?>
<!-- Generator: Adobe Illustrator 26.0.2, SVG Export Plug-In . SVG Version: 6.00 Build 0)  -->
<svg version="1.1" id="Layer_1" xmlns="http://www.w3.org/2000/svg" xmlns:xlink="http://www.w3.org/1999/xlink" x="0px" y="0px"
	 viewBox="0 0 960 640" style="enable-background:new 0 0 960 640;" xml:space="preserve">
<style type="text/css">
	.st0{fill:#FFFFFF;}
</style>
<g>
	<path d="M286.3,454.9L286.3,454.9c-19.4,0-35.1-15.7-35.1-35.1V220.2c0-19.4,15.7-35.1,35.1-35.1h387.5c19.4,0,35.1,15.7,35.1,35.1
		v199.7c0,19.4-15.7,35.1-35.1,35.1H286.3z"/>
	<path class="st0" d="M286.3,437.4L286.3,437.4c-9.7,0-17.5-7.9-17.5-17.6V220.2c0-9.7,7.9-17.6,17.5-17.6h387.5
		c9.7,0,17.6,7.9,17.6,17.6v199.6c0,9.7-7.9,17.6-17.6,17.6H286.3z"/>
	<path d="M557.3,266v-11.5c-11.5-0.4-13,2.7-16,5.7v-5h-12.2v47.3h12.2V279C541.3,272.1,549.3,266,557.3,266"/>
	<path d="M564.2,295l9.2-8c3.4,3.8,10.7,7.3,13.7,7.3c3.4,0,6.1-2.3,6.1-5c0-2.3-1.5-3.4-3.4-3.8c-1.5-0.4-7.6-1.9-9.2-2.3
		c-1.1,0-12.2-2.3-12.2-13.4c0-11.8,12.2-14.9,19.5-14.9c7.2,0,14.1,2.3,19.1,6.9l-7.6,8.4c-4.6-3.8-7.6-5.3-11.1-5.3
		c-3.8,0-6.9,1.5-6.9,4.2c0,3.1,2.3,3.4,3.4,3.4c1.2,0.4,8.8,1.9,10.7,2.7c1.9,0.4,11.1,3,11.1,14.1c0,10.7-9.9,14.9-19.9,14.9
		C577.2,304.2,567.6,299.2,564.2,295"/>
	<polygon points="448.5,302.6 453.1,302.6 469.1,255.7 455.4,255.7 445.5,287.4 435.5,255.7 422.5,255.7 439,302.6 443.9,302.6 	"/>
	<path d="M407.3,383.6v-24.4c0-6.5-6.1-11.5-19.1-11.5c-10.3,0-17.2,4.6-19.9,6.1l5.3,9.2c4.2-2.7,12.6-4.6,16-4.6
		c3.4,0,5.4,2.7,5.4,4.2v2.7c-4.2,0-14.9,1.9-18.7,3.4c-3.8,1.1-10.3,3.8-10.3,13.4c0,9.2,9.5,15.3,19.1,15.3
		c8.4,0,11.1-4.6,11.1-4.6s4.2,5,11.4,5l5-9.5C406.9,387,407.3,385.1,407.3,383.6 M395.1,374.8v8.8c0,3.8-6.9,3.4-8,3.4
		c-1.1,0-8.4,0-8.4-5.7C378.6,375.2,387.4,374.8,395.1,374.8"/>
	<path d="M360.7,361.8l-11.5,3.8c-1.2-3.4-4.2-7.6-9.5-7.6c-5,0-10.7,5-10.7,14.9c0,9.9,5.3,15.3,10.7,15.3c5.7,0,9.2-5.3,9.9-8.4
		l11.8,2.7c-1.5,6.1-9.2,16.4-21,16.4c-12.2,0-23.7-10.3-23.7-25.9c0-16,12.2-25.6,22.5-25.6C349.6,347.3,358,354.2,360.7,361.8"/>
	<path d="M488.2,364.1v32.1h-11.8v-28.6c0-4.6-3.8-8-7.6-8c-3.8,0-8,3.4-8,9.6v27.1h-12.2v-29c0-4.2-3.4-7.6-6.9-7.6
		c-3.4,0-8.8,2.7-8.8,9.2v27.5H421v-46.9h11.8v2.7c0,0,4.6-3.4,12.6-3.4c7.2,0,11.5,5,11.5,5c-0.4,0,5-5.3,13-5.3
		C481.7,348.1,488.2,356.5,488.2,364.1"/>
	<path d="M640.1,359.9v-11.8c-11.5,0-13.4,3-16,5.7v-4.6h-12.2v47h12.2v-23.7C624.1,365.6,631.7,359.9,640.1,359.9"/>
	<path d="M339,279h-5.7h-5.7h-5.3l8-25.6L339,279z M359.9,302.6l-21.4-66.1h-16.4l-21.4,66.1h13.7l3.8-11.8h7.6h8.4h8l4.2,11.8
		H359.9z"/>
	<path d="M402.7,284.3c0,4.2-3.4,9.9-10.7,9.9c-6.9,0-11.1-6.1-11.1-14.9s5-13.4,11.1-13.4c6.1,0,10.7,3.4,10.7,9.2V284.3z
		 M414.9,302.6V237h-12.2v22.1c-5-3.4-7.6-4.6-13.4-4.6c-5.7,0-21,5.3-21,24.4c0,19.5,14.9,25.6,22.1,25.6c7.3,0,12.2-3.8,12.2-3.8
		v1.9L414.9,302.6L414.9,302.6z"/>
	<path d="M505.8,274h-18.7c0-4.6,3.4-9.2,9.5-9.2C502.3,264.8,505.8,269.8,505.8,274 M518,283.6c0.4-5.7-1.9-29.4-21.8-29.4
		c-17.6,0-21.4,18.7-21.4,24.8c0,5.7,3.4,25.2,22.5,25.2c11.1,0,16.8-6.5,18.3-8l-7.6-7.2c0,0-3.4,4.2-10.3,4.2
		c-6.9,0-10.7-5-10.7-9.5L518,283.6L518,283.6z"/>
	<path d="M644.3,274h-18.7c0-4.6,3.4-9.2,9.5-9.2C640.9,264.8,644.3,269.8,644.3,274 M634.8,254.2c-17.6,0-21.4,18.7-21.4,24.8
		c0,5.7,3.4,25.2,22.9,25.2c11.1,0,16.8-6.5,18.3-8l-7.6-7.3c0,0-3.4,4.2-10.7,4.2c-6.9,0-10.7-5-10.7-9.6h30.9
		C657.3,277.8,654.6,254.2,634.8,254.2"/>
	<path d="M536.7,372.9c0,8.8-4.2,14.9-11.1,14.9c-7.3,0-10.7-5.7-10.7-9.5v-9.6c0-5.3,4.6-9.2,10.7-9.2
		C531.7,359.5,536.7,364.1,536.7,372.9 M549.3,372.9c0-19.5-15.3-24.8-21-24.8c-5.7,0-8.4,1.5-13.4,4.6v-22.1h-12.2v65.6h12.2v-1.9
		c0,0,5,3.8,12.2,3.8S549.3,392,549.3,372.9"/>
	<path d="M588.6,367.9h-19.1c0-5,3.8-9.6,9.5-9.6C585.2,358.4,588.6,363.3,588.6,367.9 M600.8,377.1c0.4-5.7-1.9-29.4-22.1-29.4
		c-17.6,0-21.4,18.7-21.4,24.8c0,6.1,3.8,25.2,22.9,25.2c11.1,0,16.8-6.5,18.3-8l-7.6-7.3c0,0-3.4,4.6-10.3,4.6
		c-7.3,0-11.1-5.4-11.1-9.9H600.8z"/>
</g>
</svg>
