<?xml version="1.0" encoding="UTF-8"?>

<svg style="background-color:transparent;" width="746" height="1052" version="1.1" xmlns="http://www.w3.org/2000/svg" xmlns:dc="http://purl.org/dc/elements/1.1/" xmlns:rdf="http://www.w3.org/1999/02/22-rdf-syntax-ns#">

 <g transform="translate(24.6 32.7)">
  <path d="m-24.6 1020c45.6-14.7 96.8-43.6 104-95.7 26.5-34.3 51.5-70.7 71.7-109 33.3-26.2 60-56.6 79.5-94.4 26.6-39.1 36.7-88 43.2-134 0.292-43.8 0.313-91.1 30.7-126 18.7-48.6 97.4-16.1 102-74.1 9.92-56 77.5-38.4 110-70.6 34.4-32.9 27-84.2 7.31-121 6.2-46 57.9-61.6 89.5-87.5 24-24.2-30.5-69.5 24-76.9 38-3.99 65-43.4 84.5-62.8-20.8 31.4-50 59.3-89.4 66.7-48.8 11.7 15.6 56.8-21.4 77.8-32 24.3-84.1 41.7-85.6 88.6 28.2 35.9 21.8 93.8-14.6 123-38.1 21.8-99.5 16.3-106 73.5-14.1 47.9-88.6 19.4-104 72.2-26.8 36.3-23.5 81.9-25.4 124-8.67 48.9-18.2 102-51.7 140-12.4 42.2-53.7 59.8-77.4 93.1-14.2 42.3-54.3 70.7-67.4 112-14.2 44-60.2 72.5-103 81.4z" fill="#0000ff"/>
 </g>
</svg>

