<?xml version="1.0" encoding="utf-8"?>
<!-- Generator: Adobe Illustrator 26.0.2, SVG Export Plug-In . SVG Version: 6.00 Build 0)  -->
<svg version="1.1" id="Layer_1" xmlns="http://www.w3.org/2000/svg" xmlns:xlink="http://www.w3.org/1999/xlink" x="0px" y="0px"
	 viewBox="0 0 960 640" style="enable-background:new 0 0 960 640;" xml:space="preserve">
<style type="text/css">
	.st0{fill:#BD002D;}
	.st1{fill:#FFFFFF;}
	.st2{fill:#F4D209;}
	.st3{fill:#76952F;}
</style>
<g>
	<path class="st0" d="M709.9,553.8c12.3,0,24.1-6.7,30.1-17.4c6.3-11.1,6.3-24.2,0-35.2l-230-397.6c-6.2-10.7-17.7-17.4-30.1-17.4
		s-23.9,6.6-30.2,17.4L220,501.2c-6.3,11.1-6.3,24.2,0,35.2c6.3,10.7,17.8,17.4,30.5,17.4H709.9z"/>
	<polygon class="st1" points="270.7,507.1 689.3,507.1 480.2,144.8 	"/>
	<path d="M433.5,261.6L433.5,261.6c0-25.8,20.9-46.7,46.7-46.7h0.4c25.7,0.2,46.3,21.1,46.3,46.7v186.9c0,25.7-20.7,46.5-46.3,46.7
		h-0.4c-25.8,0-46.7-20.9-46.7-46.7V261.6z"/>
	<path class="st0" d="M480.5,222.4c21.4,0,38.8,17.4,38.8,38.8c0,21.4-17.4,38.8-38.8,38.8c-21.4,0-38.8-17.4-38.8-38.8
		C441.7,239.7,459,222.4,480.5,222.4"/>
	<path class="st2" d="M480.5,316.1c21.4,0,38.8,17.4,38.8,38.8s-17.4,38.8-38.8,38.8c-21.4,0-38.8-17.4-38.8-38.8
		C441.7,333.5,459,316.1,480.5,316.1"/>
	<path class="st3" d="M480.5,409.8c21.4,0,38.8,17.4,38.8,38.8c0,21.4-17.4,38.8-38.8,38.8c-21.4,0-38.8-17.4-38.8-38.8
		C441.7,427.2,459,409.8,480.5,409.8"/>
</g>
</svg>
