<?xml version="1.0" encoding="utf-8"?>
<!-- Generator: Adobe Illustrator 26.0.2, SVG Export Plug-In . SVG Version: 6.00 Build 0)  -->
<svg version="1.1" id="Layer_1" xmlns="http://www.w3.org/2000/svg" xmlns:xlink="http://www.w3.org/1999/xlink" x="0px" y="0px"
	 viewBox="0 0 960 640" style="enable-background:new 0 0 960 640;" xml:space="preserve">
<style type="text/css">
	.st0{fill:#BD002D;}
	.st1{fill:#FFFFFF;}
</style>
<g>
	<path class="st0" d="M709.3,553.8c19.4,0,35.2-15.8,35.2-35.2c0-5.9-1.6-12.3-4.8-17.4L510.5,103.6c-6.3-11.1-18.2-17.4-30.5-17.4
		c-12.7,0-24.2,6.3-30.5,17.4L220.2,501.2c-3.6,5.9-4.8,10.7-4.8,17.4c0,19.4,15.4,35.2,34.8,35.2H709.3z"/>
	<polygon class="st1" points="689.1,507.1 270.5,507.1 480,144.4 	"/>
	<path d="M553.2,303.2l-32.1-15l-42,15c-18.4,6.8-34.8,19.1-47,35l-34.6-20l-13.9,23.4l34.9,20.2c-5.2,12.4-8.4,25.9-8.4,40.4v89.5
		H461v-89.5c0-24.2,15-43.6,35.6-51.5l41.6-15L553.2,303.2z"/>
</g>
</svg>
