<?xml version="1.0" encoding="utf-8"?>
<!-- Generator: Adobe Illustrator 26.0.2, SVG Export Plug-In . SVG Version: 6.00 Build 0)  -->
<svg version="1.1" id="Layer_1" xmlns="http://www.w3.org/2000/svg" xmlns:xlink="http://www.w3.org/1999/xlink" x="0px" y="0px"
	 viewBox="0 0 960 640" style="enable-background:new 0 0 960 640;" xml:space="preserve">
<style type="text/css">
	.st0{fill:#BD002D;}
	.st1{fill:#FFFFFF;}
</style>
<g>
	<path class="st0" d="M709.3,553.8c19.4,0,35.2-15.8,35.2-35.2c0-5.9-1.6-12.3-4.8-17.4L510.5,103.6c-6.3-11.1-18.2-17.4-30.5-17.4
		c-12.7,0-24.2,6.3-30.5,17.4L220.2,501.2c-3.6,5.9-4.8,10.7-4.8,17.4c0,19.4,15.4,35.2,34.8,35.2H709.3z"/>
	<polygon class="st1" points="689.1,507.1 270.5,507.1 480,144.4 	"/>
	<path d="M621.4,421.2l-55,55.1l-59-59v74h-39.2v-96.6c0,0-4-20.6-11.5-27.7l-34.5-34.8v-55h55L621.4,421.2z"/>
</g>
</svg>
