<?xml version="1.0" encoding="utf-8"?>
<!-- Generator: Adobe Illustrator 26.0.2, SVG Export Plug-In . SVG Version: 6.00 Build 0)  -->
<svg version="1.1" id="Layer_1" xmlns="http://www.w3.org/2000/svg" xmlns:xlink="http://www.w3.org/1999/xlink" x="0px" y="0px"
	 viewBox="0 0 960 640" style="enable-background:new 0 0 960 640;" xml:space="preserve">
<style type="text/css">
	.st0{fill:#BD002D;}
	.st1{fill:#FFFFFF;}
</style>
<g>
	<path class="st0" d="M709.9,553.8c12.3,0,24.1-6.7,30.1-17.4c6.3-11.1,6.3-24.2,0-35.2l-230-397.6c-6.2-10.7-17.7-17.4-30.1-17.4
		s-23.9,6.6-30.2,17.4L220,501.2c-6.3,11.1-6.3,24.2,0,35.2c6.3,10.7,17.8,17.4,30.5,17.4H709.9z"/>
	<polygon class="st1" points="270.7,507.1 689.3,507.1 480.2,144.8 	"/>
	<path d="M418,410.9c-3.2-7.5-4.8-15.9-4.8-24.6c0-30.1,20.2-55.8,47.5-63.7l18.6-22.2l-20.6-17.8c-48.3,9.9-84.7,52.7-84.7,103.7
		c0,13.9,2.8,26.9,7.5,39.2L418,410.9z"/>
	<path d="M488.9,320.6c7.9,1.2,16.2,4,23.8,8.3c26.1,15,38,45.1,31.3,72.9l9.9,27.3l25.7-9.1c15.4-46.7-3.2-99.4-47.5-125.1
		c-11.9-6.7-25-11.1-38-13.1L488.9,320.6z"/>
	<path d="M531.7,427.1c-5.1,6.3-11.5,12.3-19,16.6c-26.1,14.7-58.2,10.3-79.2-9.5l-28.5-5.1l-4.7,26.9
		c32.5,36.8,87.5,46.7,131.9,21.4c12.3-7.1,22.2-15.8,30.5-26.5L531.7,427.1z"/>
</g>
</svg>
