<?xml version="1.0" encoding="utf-8"?>
<!-- Generator: Adobe Illustrator 26.0.2, SVG Export Plug-In . SVG Version: 6.00 Build 0)  -->
<svg version="1.1" id="Layer_1" xmlns="http://www.w3.org/2000/svg" xmlns:xlink="http://www.w3.org/1999/xlink" x="0px" y="0px"
	 viewBox="0 0 960 640" style="enable-background:new 0 0 960 640;" xml:space="preserve">
<style type="text/css">
	.st0{fill:#BD002D;}
	.st1{fill:#FFFFFF;}
</style>
<g>
	<path class="st0" d="M250.7,553.8h459c19.4,0,34.8-15.8,34.8-35.2c0-5.9-1.6-12.3-4.4-17.4L510.5,103.6
		c-6.3-11.1-17.8-17.4-30.5-17.4c-12.3,0-24.2,6.3-30.5,17.4L220.2,501.2c-3.2,5.1-4.8,11.5-4.8,17.4
		C215.5,538,231.3,553.8,250.7,553.8"/>
	<polygon class="st1" points="689.5,507.1 270.9,507.1 480,144.4 	"/>
	<path d="M449.1,330.5V277l38.8-38.8l38.8,38.8v214.2h-77.6v-89.5l-62.6,62.2l-27.7-27.3l78.8-78.8
		C444.8,350.7,449.1,340.8,449.1,330.5"/>
</g>
</svg>
