<?xml version="1.0" encoding="utf-8"?>
<!-- Generator: Adobe Illustrator 26.0.2, SVG Export Plug-In . SVG Version: 6.00 Build 0)  -->
<svg version="1.1" id="Layer_1" xmlns="http://www.w3.org/2000/svg" xmlns:xlink="http://www.w3.org/1999/xlink" x="0px" y="0px"
	 viewBox="0 0 960 640" style="enable-background:new 0 0 960 640;" xml:space="preserve">
<style type="text/css">
	.st0{fill:#BD002D;}
	.st1{fill:#F4D209;}
	.st2{fill:#76952F;}
	.st3{fill:#FFFFFF;}
</style>
<g>
	<path class="st0" d="M622,344H338L480.1,98.2L622,344z M656.4,340l-156-269.7c-4.2-7.3-12-11.8-20.5-11.8
		c-8.4,0-16.2,4.5-20.5,11.8L303.6,340c-4.3,7.5-4.3,16.4,0,23.9c4.3,7.3,12.1,11.8,20.7,11.8h311.6c8.3,0,16.4-4.6,20.4-11.8
		C660.6,356.4,660.6,347.5,656.4,340"/>
	<path d="M448.4,177.5L448.4,177.5c0-17.5,14.2-31.7,31.7-31.7h0.3c17.4,0.1,31.4,14.3,31.4,31.7v126.8c0,17.4-14,31.5-31.4,31.7
		h-0.3c-17.5,0-31.7-14.2-31.7-31.7V177.5z"/>
	<path class="st0" d="M480.3,150.9c14.5,0,26.3,11.8,26.3,26.3c0,14.5-11.8,26.3-26.3,26.3c-14.5,0-26.3-11.8-26.3-26.3
		C454,162.7,465.8,150.9,480.3,150.9"/>
	<path class="st1" d="M480.3,214.4c14.5,0,26.3,11.8,26.3,26.3c0,14.5-11.8,26.3-26.3,26.3c-14.5,0-26.3-11.8-26.3-26.3
		S465.8,214.4,480.3,214.4"/>
	<path class="st2" d="M480.3,278c14.5,0,26.3,11.8,26.3,26.3c0,14.5-11.8,26.3-26.3,26.3c-14.5,0-26.3-11.8-26.3-26.3
		C454,289.8,465.8,278,480.3,278"/>
	<path d="M323,581.5L323,581.5c-13.6,0-24.7-11.1-24.7-24.7V416.3c0-13.6,11.1-24.7,24.7-24.7h314c13.6,0,24.7,11.1,24.7,24.7v140.5
		c0,13.6-11.1,24.7-24.7,24.7H323z"/>
	<path class="st3" d="M323,569.2L323,569.2c-6.8,0-12.3-5.5-12.3-12.4V416.3c0-6.8,5.5-12.4,12.3-12.4h314c6.8,0,12.4,5.5,12.4,12.4
		v140.5c0,6.8-5.5,12.4-12.4,12.4H323z"/>
	<path d="M406.3,465.5V448c0-4.3-4.3-7.8-13.4-7.8c-7.3,0-12.1,3.2-13.7,4.3l3.5,6.4c3-1.9,8.9-3.2,11.6-3.2c2.4,0,3.5,1.9,3.5,3
		v1.9c-3,0-10.2,1.3-13.2,2.1c-2.7,1.1-7.2,3-7.2,9.7c0,6.4,6.7,10.7,13.7,10.7c5.6,0,7.8-3.2,7.8-3.2s3,3.5,7.8,3.5l3.5-6.7
		C406,467.9,406.3,466.5,406.3,465.5 M397.7,459.3v6.2c0,2.7-4.8,2.4-5.6,2.4c-0.8,0-5.9,0-5.9-4
		C386.1,459.6,392.3,459.3,397.7,459.3"/>
	<rect x="521.2" y="441.3" width="8.3" height="33"/>
	<path d="M525.1,428.5c2.7,0,4.8,2.2,4.8,4.8c0,2.7-2.2,4.8-4.8,4.8c-2.7,0-4.8-2.2-4.8-4.8C520.2,430.6,522.4,428.5,525.1,428.5"/>
	<path d="M586.8,451.8v22.6h-8.6v-20.1c0-3.2-2.4-5.6-5.1-5.6c-2.7,0-5.9,2.4-5.9,6.7v19.1h-8.3v-20.4c0-3-2.7-5.4-5.1-5.4
		c-2.4,0-5.9,1.9-5.9,6.4v19.3h-8.6V441h8.6v2.1c0,0,3-2.4,8.6-2.4c5.1,0,8.1,3.2,8.1,3.2s3.5-3.5,9.1-3.5
		C582.2,440.5,586.8,446.4,586.8,451.8"/>
	<path d="M436.3,448.5v-8.1c-8.1,0-9.4,1.9-11.3,4v-3.2h-8.6v33h8.6v-16.7C425.1,452.8,430.4,448.5,436.3,448.5"/>
	<path d="M465.6,473.5l-1.6-7.3c-5.9,1.9-7.8,0.3-7.8-1.3v-16.4h8.9v-7.3h-8.9v-13.2l-8.3,2.4v10.7h-5.4v7.3h5.4v19.3
		c0,4.3,2.4,7.5,8.9,7.5C461.3,475.4,464.6,473.8,465.6,473.5"/>
	<path d="M514.2,473.5l-1.6-7.3c-5.9,1.9-7.5,0.3-7.5-1.3v-16.4h8.6v-7.3h-8.6v-13.2l-8.6,2.4v10.7h-5.4v7.3h5.4v19.3
		c0,4.3,2.7,7.5,8.9,7.5C510,475.4,513.2,473.8,514.2,473.5"/>
	<path d="M445.5,522.9c0-3.5-1.6-7-5.9-7c-4.3,0-5.9,4-5.9,7c0,3,1.1,7.3,5.9,7.3C443.9,530.2,445.5,526.4,445.5,522.9 M424,547.7
		l3.8-7.3c1.6,1.1,4.8,3,10.7,3c8.6,0,7-6.4,7-6.4s-2.7,1.9-6.4,1.9c-14.8,0-15.1-15.8-15.1-15.8s0-7.5,5.1-11.8
		c2.7-2.4,5.6-3.8,9.9-3.8c1.1,0,4.6,0.5,6.4,1.6v-1.6h8.9v33.6c0,7.5-10.2,10.5-15.6,10.5S427.2,549.5,424,547.7"/>
	<path d="M555.9,540.4l-0.8-7.5c-4,0.8-6.2,0-6.2-1.9v-36.8h-8.3v40.3c0,3.5,2.1,7,8.6,7C552.7,541.5,555.9,540.4,555.9,540.4"/>
	<path d="M494.4,518.7v21.8h-8.6v-21c0-2.4-2.1-4.8-5.6-4.8c-3.8,0-7,3.2-7,7.5v18.3h-8.6v-33h8.6v2.4c0,0,3.5-3.2,8.3-3.2
		C489.3,506.6,494.4,512.7,494.4,518.7"/>
	<path d="M371.1,535l6.4-5.6c2.1,2.7,7.3,5.1,9.7,5.1c2.1,0,4.3-1.6,4.3-3.2c0-1.9-1.3-2.7-2.4-3c-1.3-0.3-5.6-1.3-6.4-1.6
		c-1.1,0-8.9-1.6-8.9-9.4c0-8.3,8.9-10.5,14-10.5c5.1,0,9.7,1.6,13.4,4.8l-5.4,5.9c-3.2-2.7-5.6-3.8-8.1-3.8c-2.7,0-4.6,1.1-4.6,3
		c0,2.1,1.3,2.4,2.1,2.4c0.8,0.3,6.5,1.3,7.8,1.9c1.1,0.3,7.8,2.1,7.8,9.9c0,7.5-7.3,10.7-14,10.7C379.9,541.8,373.2,538,371.1,535"
		/>
	<rect x="407.3" y="507.4" width="8.3" height="33"/>
	<path d="M411.4,493.8c2.7,0,4.8,2.2,4.8,4.8c0,2.7-2.2,4.8-4.8,4.8c-2.7,0-4.8-2.2-4.8-4.8C406.5,496,408.7,493.8,411.4,493.8"/>
	<path d="M530.4,531.5v-17.5c0-4.6-4.3-7.8-13.4-7.8c-7.3,0-12.1,3.2-14,4.3l3.8,6.4c3-2.1,8.9-3.2,11.3-3.2c2.7,0,3.8,1.9,3.8,3
		v1.9c-3,0-10.2,1.3-13.2,2.1c-2.7,1.1-7.2,3-7.2,9.4c0,6.7,6.7,11,13.4,11c5.9,0,7.8-3.5,7.8-3.5s3,3.8,8.1,3.8l3.5-6.7
		C530.1,534,530.4,532.4,530.4,531.5 M521.8,525.4v6.2c0,2.7-4.8,2.4-5.6,2.4c-0.8,0-5.9,0-5.9-4
		C510.2,525.6,516.4,525.4,521.8,525.4"/>
	<path d="M558.3,535l6.4-5.6c2.1,2.7,7.5,5.1,9.7,5.1c2.4,0,4.3-1.6,4.3-3.2c0-1.9-1.1-2.7-2.4-3c-1.1-0.3-5.6-1.3-6.4-1.6
		c-0.8,0-8.9-1.6-8.9-9.4c0-8.3,8.9-10.5,14-10.5c5.1,0,9.9,1.6,13.4,4.8l-5.4,5.9c-3.2-2.7-5.4-3.8-8.1-3.8c-2.4,0-4.6,1.1-4.6,3
		c0,2.1,1.6,2.4,2.1,2.4c0.8,0.3,6.5,1.3,7.8,1.9c1.3,0.3,7.8,2.1,7.8,9.9c0,7.5-7.3,10.7-14,10.7C567.4,541.8,560.4,538,558.3,535"
		/>
	<path d="M364.1,442.9c0,3.2-3,6.7-7,6.7h-8.9v-13.4h8.9C361.4,436.2,364.1,439.7,364.1,442.9 M373.5,442.9c0-7.8-5.4-15-12.9-15
		h-21.8v46.5h9.4v-16.6h10.5C368.7,457.7,373.5,450.7,373.5,442.9"/>
	<path d="M616.9,454.2h-13.2c0-3.2,2.4-6.4,6.7-6.4C614.4,447.7,616.9,451.2,616.9,454.2 M610.1,440.2c-12.4,0-15,13.2-15,17.5
		c0,4,2.4,17.7,16.1,17.7c7.8,0,11.8-4.6,12.6-5.6l-5.1-5.1c0,0-2.4,3-7.5,3c-4.8,0-7.5-3.5-7.5-6.7h21.8
		C626,456.9,624.1,440.2,610.1,440.2"/>
</g>
</svg>
