<?xml version="1.0" encoding="utf-8"?>
<!-- Generator: Adobe Illustrator 26.0.2, SVG Export Plug-In . SVG Version: 6.00 Build 0)  -->
<svg version="1.1" id="Layer_1" xmlns="http://www.w3.org/2000/svg" xmlns:xlink="http://www.w3.org/1999/xlink" x="0px" y="0px"
	 viewBox="0 0 960 640" style="enable-background:new 0 0 960 640;" xml:space="preserve">
<style type="text/css">
	.st0{fill:#BD002D;}
	.st1{fill:#FFFFFF;}
</style>
<g>
	<path class="st0" d="M708.1,555.2c12.2,0,24-6.8,29.9-17.5c6.3-11.2,6.3-24.3,0-35.5l-228.3-400c-6.2-10.8-17.6-17.5-29.9-17.5
		c-12.3,0-23.7,6.7-29.9,17.5L222,502.2c-6.3,11.2-6.3,24.3,0,35.5c6.3,10.8,17.7,17.5,30.2,17.5H708.1z"/>
	<polygon class="st1" points="272.3,508.2 687.7,508.2 480.2,143.7 	"/>
	<polygon points="429.5,492.7 506.9,492.7 506.9,406.2 565.1,406.2 565.1,367.2 506.9,367.2 506.9,288.7 468.4,249.3 429.5,288.7 	
		"/>
</g>
</svg>
