<?xml version="1.0" encoding="utf-8"?>
<!-- Generator: Adobe Illustrator 26.0.2, SVG Export Plug-In . SVG Version: 6.00 Build 0)  -->
<svg version="1.1" id="Layer_1" xmlns="http://www.w3.org/2000/svg" xmlns:xlink="http://www.w3.org/1999/xlink" x="0px" y="0px"
	 viewBox="0 0 960 640" style="enable-background:new 0 0 960 640;" xml:space="preserve">
<style type="text/css">
	.st0{fill-rule:evenodd;clip-rule:evenodd;}
	.st1{fill-rule:evenodd;clip-rule:evenodd;fill:#FFFFFF;}
</style>
<g>
	<path class="st0" d="M480,65.5H338.8c-14.2,0-25.6,11.5-25.6,25.6v457.7c0,14.2,11.5,25.6,25.6,25.6h282.3
		c14.2,0,25.6-11.5,25.6-25.6V91.1c0-14.2-11.5-25.6-25.6-25.6H480z"/>
	<path class="st1" d="M480,390.6H338.8c-7.1,0-12.8,5.7-12.8,12.8v145.4c0,7.1,5.7,12.8,12.8,12.8h282.3c7.1,0,12.8-5.7,12.8-12.8
		V403.5c0-7.1-5.7-12.8-12.8-12.8H480z"/>
	<path class="st1" d="M480,78.3H338.8c-7.1,0-12.8,5.7-12.8,12.8V365c0,7.1,5.7,12.8,12.8,12.8h282.3c7.1,0,12.8-5.7,12.8-12.8V91.1
		c0-7.1-5.7-12.8-12.8-12.8C621.2,78.3,480,78.3,480,78.3z"/>
	<rect x="351.7" y="349.6" class="st0" width="202.8" height="6.7"/>
	<path class="st0" d="M404.5,239.4l155.4,56.7l47.8-130.8l-0.2,0c0.6-1.5,0.9-3.2,0.9-4.8c0-5.7-3.6-10.7-8.9-12.7l0,0.1
		l-130.2-47.4l0-0.1c-1.5-0.5-3-0.8-4.6-0.8c-5.7,0-10.7,3.6-12.7,8.9l0.1,0L404.5,239.4z"/>
	<path class="st0" d="M417.3,299.8l-6.5-1.1l3-17.8l6.5,1.1L417.3,299.8z M522.5,318.5l3.3-17.8l-6.5-1.1l-3.3,17.8L522.5,318.5z
		 M439,303.7l0.7-4.1l-1.7-2.6l2.2-11.5l59.3,10.6l-2,11.3l-2.4,2l-0.9,3.9l-17.6-5.9c-0.2-0.2-0.2-0.2-0.4-0.4l-3.5-5.9
		c-0.4-0.7-0.9-1.1-1.5-1.1l-6.1-1.1h-0.2c-0.4,0-0.7,0-1.1,0.2l-5.9,4.6c0,0.2-0.2,0.2-0.4,0.2L439,303.7z M437.9,310l-0.9,5
		l-2.4,2l-2.2,11.3c-0.2,1.5-1.5,2.8-3.3,2.8c-0.2,0-0.4,0-0.7-0.2l-13-2.2c-1.7-0.4-2.8-1.7-2.8-3.5v-0.4l3.3-18.7l-6.5-1.1
		l-3.3,18.5c-0.2,1.7-1.5,2.8-3.3,2.8h-0.7l-13-2.4c-1.7-0.2-2.8-1.5-2.8-3.3V320l7.6-42.6l-5.9-1.1l2.2-11.5l163,28.7l-2.2,11.7
		l-5.7-1.1l-7.6,42.6c-0.2,1.7-1.7,2.8-3.3,2.8H534l-13-2.4c-1.7-0.2-2.8-1.7-2.8-3.3v-0.7l3.3-18.5l-6.5-1.3l-3.3,18.7
		c-0.2,1.5-1.7,2.8-3.3,2.8h-0.7l-13-2.4c-1.7-0.2-2.8-1.7-2.8-3.3v-0.7l2-11.3l-1.5-2.6l0.9-5.2l-18.7-0.2c0,0-0.2,0-0.4,0.2
		l-5.9,4.6c-0.2,0.2-0.7,0.2-0.9,0.2h-0.4l-5.9-1.1c-0.7,0-1.3-0.4-1.5-0.9l-3.7-6.1c0-0.2-0.2-0.2-0.2-0.2L437.9,310z"/>
	<path class="st0" d="M393.2,506.7l-8,2.6c-0.9-2.4-3.3-5.4-7-5.4c-3.7,0-8,3.7-8,10.9c0,7.4,3.9,11.1,8,11.1c3.9,0,6.5-3.9,7-5.9
		l8.7,1.7c-1.1,4.6-6.5,12-15.4,12c-8.7,0-17.2-7.4-17.2-18.9c0-11.5,9.1-18.5,16.7-18.5C385.3,496.3,391.4,501.3,393.2,506.7"/>
	<path class="st0" d="M487.1,508.4v23.5h-8.7v-21.1c0-3.3-2.6-5.7-5.4-5.7c-2.8,0-5.9,2.4-5.9,6.7v20h-8.9v-21.3
		c0-3-2.6-5.4-5.2-5.4c-2.4,0-6.1,2-6.1,6.7v20h-8.9v-34.3h8.9v2c0,0,3-2.6,8.9-2.6c5.2,0,8.5,3.7,8.3,3.7c0,0,3.7-3.9,9.6-3.9
		C482.5,496.7,487.1,502.8,487.1,508.4"/>
	<path class="st0" d="M418.8,516.3v6.5c0,2.6-5,2.4-5.9,2.4c-0.7,0-6.1,0-6.1-4.1C406.9,516.5,413.4,516.3,418.8,516.3 M427.7,522.6
		v-17.8c0-4.8-4.3-8.3-13.9-8.3c-7.4,0-12.4,3.3-14.3,4.3l3.9,6.7c3-2,9.1-3.3,11.7-3.3s3.7,2,3.7,3v2c-3,0-10.6,1.3-13.5,2.4
		c-2.8,0.9-7.6,2.8-7.6,9.8c0,6.7,7,11.3,14.1,11.3c6.1,0,8-3.7,8-3.7s3,3.7,8.3,3.9l3.5-7.2C427.5,525.2,427.7,523.6,427.7,522.6"
		/>
	<path class="st0" d="M546,511h13.7c0-3.3-2.4-6.7-6.7-6.7C548.6,504.3,546,507.8,546,511 M546,518h22.6c0.4-4.3-1.3-21.5-15.9-21.5
		c-12.8,0-15.6,13.7-15.6,18c0,4.3,2.6,18.5,16.7,18.5c8,0,12.2-4.8,13.3-5.9l-5.4-5.4c0,0-2.6,3.3-7.8,3.3
		C548.8,524.9,546,521.3,546,518"/>
	<path class="st0" d="M506.2,511.5v7c0,2.8,2.8,7,8,7c5.2,0,8-4.1,8-11.1c0-6.3-3.5-9.1-8-9.1C509.5,505.2,506.2,507.6,506.2,511.5
		 M506.2,500v-16.1h-8.7v47.8h8.7v-1.7c0,0,3.9,2.8,9.1,2.8c5.2,0,16.1-4.1,16.1-18.5c0-13.7-10.9-17.8-15.4-17.8
		C511.8,496.5,510.1,497.6,506.2,500"/>
	<path class="st0" d="M597,505.2v-8.5c-8.5,0-9.8,2.2-11.7,4.1v-3.3h-8.9v34.1h8.9v-17C585.3,509.5,591,505.2,597,505.2"/>
	<path class="st0" d="M541.6,457.8l6.7-5.9c2.2,2.8,7.6,5.4,10,5.4c2.4,0,4.3-1.7,4.3-3.5c0-1.7-1.3-2.6-2.4-2.8
		c-1.3-0.4-5.9-1.5-6.7-1.7c-0.9-0.2-9.1-1.7-9.1-10c0-8.5,9.1-10.6,14.3-10.6c5.4,0,10.2,1.5,13.9,5l-5.7,6.1
		c-3.3-2.8-5.4-3.9-8.3-3.9c-2.6,0-4.6,1.1-4.6,3c0,2.2,1.5,2.4,2.2,2.6c0.9,0.2,6.5,1.5,8,1.7c1.3,0.2,8,2.4,8,10.2
		c0,8-7.4,11.3-14.6,11.3C551,464.7,543.8,460.8,541.6,457.8"/>
	<path class="st0" d="M536.4,436.7v-8.5c-8.5,0-9.8,2.2-11.7,4.1v-3.3h-8.9v34.1h8.9v-16.9C524.7,441.1,530.3,436.7,536.4,436.7"/>
	<polygon class="st0" points="457.1,463.4 460.5,463.4 472.3,429.3 462.1,429.3 454.9,452.4 447.7,429.3 438.2,429.3 450.1,463.4 
		453.8,463.4 	"/>
	<path class="st0" d="M369.3,446.3h-3.9l5.9-18.9l6.3,18.9h-4.1H369.3z M368.2,454.7h-5.7l-2.8,8.5h-9.8l15.4-47.8h12l15.6,47.8h-10
		l-2.8-8.5h-5.9H368.2z"/>
	<path class="st0" d="M423.2,443.2v6.3c0,0.9-0.4,1.7-0.9,2.4c-0.4,0.7-0.9,1.5-1.5,2.2c-1.3,1.1-2.6,2-5.2,2c-5.2,0-7.8-3.5-7.8-10
		s3.5-10.2,7.8-10.2C420.1,435.8,423.2,439.1,423.2,443.2 M423.2,430.6v-15.2h9.3v47.8h-9.3V461c0,0-1.3,1.3-3.3,2.2
		c-1.5,0.7-3.7,1.1-6.1,1.1c-2.4,0-6.1-0.9-9.1-3c-3.5-2.6-6.3-7.6-6.3-15.2c0-6.7,1.5-10.9,4.6-13.7c3.3-3.3,8-4.8,10.2-4.8
		C417.5,427.6,419.5,428.2,423.2,430.6"/>
	<path class="st0" d="M485.3,442.6H499c0-3-2.4-6.7-6.7-6.7S485.3,439.3,485.3,442.6 M485.3,449.5h22.6c0.4-4.3-1.3-21.5-15.9-21.5
		c-12.8,0-15.6,13.7-15.6,18c0,4.4,2.6,18.5,16.7,18.5c8,0,12.2-4.8,13.3-5.9l-5.4-5.4c0,0-2.6,3.3-7.8,3.3
		C488.2,456.5,485.3,452.8,485.3,449.5"/>
	<path class="st0" d="M586.4,442.6h13.7c0-3-2.6-6.7-6.7-6.7C589,435.8,586.4,439.3,586.4,442.6 M586.2,449.5H609
		c0.4-4.3-1.3-21.5-15.9-21.5c-12.8,0-15.6,13.7-15.6,18c0,4.4,2.6,18.5,16.5,18.5c8,0,12.2-4.8,13.3-5.9l-5.4-5.4
		c0,0-2.6,3.3-7.6,3.3C589,456.5,586.2,452.8,586.2,449.5"/>
</g>
</svg>
