<?xml version="1.0" encoding="utf-8"?>
<!-- Generator: Adobe Illustrator 26.0.2, SVG Export Plug-In . SVG Version: 6.00 Build 0)  -->
<svg version="1.1" id="Layer_1" xmlns="http://www.w3.org/2000/svg" xmlns:xlink="http://www.w3.org/1999/xlink" x="0px" y="0px"
	 viewBox="0 0 960 640" style="enable-background:new 0 0 960 640;" xml:space="preserve">
<style type="text/css">
	.st0{fill:#BD002D;}
	.st1{fill:#FFFFFF;}
</style>
<g>
	<path class="st0" d="M709.9,553.8c12.3,0,24.1-6.7,30.1-17.4c6.3-11.1,6.3-24.2,0-35.2l-230-397.6c-6.2-10.7-17.7-17.4-30.1-17.4
		s-23.9,6.6-30.2,17.4L220,501.2c-6.3,11.1-6.3,24.2,0,35.2c6.3,10.7,17.8,17.4,30.5,17.4H709.9z"/>
	<polygon class="st1" points="270.7,507.1 689.3,507.1 480.2,144.8 	"/>
	<polygon points="429.5,491.3 507.1,491.3 507.1,366.9 564.9,366.9 564.9,327.7 507.1,327.7 507.1,288.9 468.3,249.7 429.5,288.9 
		429.5,405.7 371.7,405.7 371.7,444.5 429.5,444.5 	"/>
</g>
</svg>
